# xmcd
#
# Track frame offsets:
#	150
#	22060
#	41664
#	60445
#	88365
#	110769
#	138369
#
# Disc length: 2192 seconds
#
# Revision: 1
# Processed by: cddbd v1.5.2PL0 Copyright (c) Steve Scherf et al.
# Submitted via: audiograbber 1.81.03
#
DISCID=61088e07
DTITLE=The Butterfield Blues Band - In My Own Dream
DYEAR=2002
DGENRE=Blues
TTITLE0=Last Hope's Gone
TTITLE1=Mine to Love
TTITLE2=Get Yourself Together
TTITLE3=Just to be with You
TTITLE4=Morning Blues
TTITLE5=Drunk Again
TTITLE6=In My Own Dream
EXTD=
EXTT0=
EXTT1=
EXTT2=
EXTT3=
EXTT4=
EXTT5=
EXTT6=
PLAYORDER=
